<mxfile host="app.diagrams.net" agent="Mozilla/5.0 (X11; Linux x86_64; rv:140.0) Gecko/20100101 Firefox/140.0" version="27.0.9">
  <diagram name="Page-1" id="wkvMPfwWF0B0VFoY-71S">
    <mxGraphModel dx="840" dy="567" grid="1" gridSize="10" guides="1" tooltips="1" connect="1" arrows="1" fold="1" page="1" pageScale="1" pageWidth="850" pageHeight="1100" math="0" shadow="0">
      <root>
        <mxCell id="0" />
        <mxCell id="1" parent="0" />
        <mxCell id="bxEy6PSnByUNLnZKAB45-2" value="" style="shape=table;startSize=0;container=1;collapsible=0;childLayout=tableLayout;fontStyle=0" parent="1" vertex="1">
          <mxGeometry x="110" y="130" width="580" height="770" as="geometry" />
        </mxCell>
        <mxCell id="bxEy6PSnByUNLnZKAB45-3" value="" style="shape=tableRow;horizontal=0;startSize=0;swimlaneHead=0;swimlaneBody=0;strokeColor=inherit;top=0;left=0;bottom=0;right=0;collapsible=0;dropTarget=0;fillColor=none;points=[[0,0.5],[1,0.5]];portConstraint=eastwest;" parent="bxEy6PSnByUNLnZKAB45-2" vertex="1">
          <mxGeometry width="580" height="40" as="geometry" />
        </mxCell>
        <mxCell id="bxEy6PSnByUNLnZKAB45-4" value="Use Case ID" style="shape=partialRectangle;html=1;whiteSpace=wrap;connectable=0;strokeColor=inherit;overflow=hidden;fillColor=none;top=0;left=0;bottom=0;right=0;pointerEvents=1;fontStyle=1" parent="bxEy6PSnByUNLnZKAB45-3" vertex="1">
          <mxGeometry width="110" height="40" as="geometry">
            <mxRectangle width="110" height="40" as="alternateBounds" />
          </mxGeometry>
        </mxCell>
        <mxCell id="bxEy6PSnByUNLnZKAB45-5" value="14" style="shape=partialRectangle;html=1;whiteSpace=wrap;connectable=0;strokeColor=inherit;overflow=hidden;fillColor=none;top=0;left=0;bottom=0;right=0;pointerEvents=1;" parent="bxEy6PSnByUNLnZKAB45-3" vertex="1">
          <mxGeometry x="110" width="50" height="40" as="geometry">
            <mxRectangle width="50" height="40" as="alternateBounds" />
          </mxGeometry>
        </mxCell>
        <mxCell id="bxEy6PSnByUNLnZKAB45-6" value="Use Case name" style="shape=partialRectangle;html=1;whiteSpace=wrap;connectable=0;strokeColor=inherit;overflow=hidden;fillColor=none;top=0;left=0;bottom=0;right=0;pointerEvents=1;fontStyle=1" parent="bxEy6PSnByUNLnZKAB45-3" vertex="1">
          <mxGeometry x="160" width="100" height="40" as="geometry">
            <mxRectangle width="100" height="40" as="alternateBounds" />
          </mxGeometry>
        </mxCell>
        <mxCell id="bxEy6PSnByUNLnZKAB45-7" value="Request Refund" style="shape=partialRectangle;html=1;whiteSpace=wrap;connectable=0;strokeColor=inherit;overflow=hidden;fillColor=none;top=0;left=0;bottom=0;right=0;pointerEvents=1;" parent="bxEy6PSnByUNLnZKAB45-3" vertex="1">
          <mxGeometry x="260" width="320" height="40" as="geometry">
            <mxRectangle width="320" height="40" as="alternateBounds" />
          </mxGeometry>
        </mxCell>
        <mxCell id="XiatY8i9MawwiDp1bJaf-1" style="shape=tableRow;horizontal=0;startSize=0;swimlaneHead=0;swimlaneBody=0;strokeColor=inherit;top=0;left=0;bottom=0;right=0;collapsible=0;dropTarget=0;fillColor=none;points=[[0,0.5],[1,0.5]];portConstraint=eastwest;" parent="bxEy6PSnByUNLnZKAB45-2" vertex="1">
          <mxGeometry y="40" width="580" height="40" as="geometry" />
        </mxCell>
        <mxCell id="XiatY8i9MawwiDp1bJaf-2" value="Description" style="shape=partialRectangle;html=1;whiteSpace=wrap;connectable=0;strokeColor=inherit;overflow=hidden;fillColor=none;top=0;left=0;bottom=0;right=0;pointerEvents=1;fontStyle=1" parent="XiatY8i9MawwiDp1bJaf-1" vertex="1">
          <mxGeometry width="110" height="40" as="geometry">
            <mxRectangle width="110" height="40" as="alternateBounds" />
          </mxGeometry>
        </mxCell>
        <mxCell id="XiatY8i9MawwiDp1bJaf-3" value="The customer requests a refund for a delivered order" style="shape=partialRectangle;html=1;whiteSpace=wrap;connectable=0;strokeColor=inherit;overflow=hidden;fillColor=none;top=0;left=0;bottom=0;right=0;pointerEvents=1;rowspan=1;colspan=3;" parent="XiatY8i9MawwiDp1bJaf-1" vertex="1">
          <mxGeometry x="110" width="470" height="40" as="geometry">
            <mxRectangle width="50" height="40" as="alternateBounds" />
          </mxGeometry>
        </mxCell>
        <mxCell id="XiatY8i9MawwiDp1bJaf-4" style="shape=partialRectangle;html=1;whiteSpace=wrap;connectable=0;strokeColor=inherit;overflow=hidden;fillColor=none;top=0;left=0;bottom=0;right=0;pointerEvents=1;" parent="XiatY8i9MawwiDp1bJaf-1" vertex="1" visible="0">
          <mxGeometry x="160" width="100" height="40" as="geometry">
            <mxRectangle width="100" height="40" as="alternateBounds" />
          </mxGeometry>
        </mxCell>
        <mxCell id="XiatY8i9MawwiDp1bJaf-5" style="shape=partialRectangle;html=1;whiteSpace=wrap;connectable=0;strokeColor=inherit;overflow=hidden;fillColor=none;top=0;left=0;bottom=0;right=0;pointerEvents=1;" parent="XiatY8i9MawwiDp1bJaf-1" vertex="1" visible="0">
          <mxGeometry x="260" width="320" height="40" as="geometry">
            <mxRectangle width="320" height="40" as="alternateBounds" />
          </mxGeometry>
        </mxCell>
        <mxCell id="bxEy6PSnByUNLnZKAB45-8" value="" style="shape=tableRow;horizontal=0;startSize=0;swimlaneHead=0;swimlaneBody=0;strokeColor=inherit;top=0;left=0;bottom=0;right=0;collapsible=0;dropTarget=0;fillColor=none;points=[[0,0.5],[1,0.5]];portConstraint=eastwest;" parent="bxEy6PSnByUNLnZKAB45-2" vertex="1">
          <mxGeometry y="80" width="580" height="40" as="geometry" />
        </mxCell>
        <mxCell id="bxEy6PSnByUNLnZKAB45-9" value="Actor" style="shape=partialRectangle;html=1;whiteSpace=wrap;connectable=0;strokeColor=inherit;overflow=hidden;fillColor=none;top=0;left=0;bottom=0;right=0;pointerEvents=1;fontStyle=1" parent="bxEy6PSnByUNLnZKAB45-8" vertex="1">
          <mxGeometry width="110" height="40" as="geometry">
            <mxRectangle width="110" height="40" as="alternateBounds" />
          </mxGeometry>
        </mxCell>
        <mxCell id="bxEy6PSnByUNLnZKAB45-10" value="Customer" style="shape=partialRectangle;html=1;whiteSpace=wrap;connectable=0;strokeColor=inherit;overflow=hidden;fillColor=none;top=0;left=0;bottom=0;right=0;pointerEvents=1;rowspan=1;colspan=3;" parent="bxEy6PSnByUNLnZKAB45-8" vertex="1">
          <mxGeometry x="110" width="470" height="40" as="geometry">
            <mxRectangle width="50" height="40" as="alternateBounds" />
          </mxGeometry>
        </mxCell>
        <mxCell id="bxEy6PSnByUNLnZKAB45-11" value="" style="shape=partialRectangle;html=1;whiteSpace=wrap;connectable=0;strokeColor=inherit;overflow=hidden;fillColor=none;top=0;left=0;bottom=0;right=0;pointerEvents=1;" parent="bxEy6PSnByUNLnZKAB45-8" vertex="1" visible="0">
          <mxGeometry x="160" width="100" height="40" as="geometry">
            <mxRectangle width="100" height="40" as="alternateBounds" />
          </mxGeometry>
        </mxCell>
        <mxCell id="bxEy6PSnByUNLnZKAB45-12" value="" style="shape=partialRectangle;html=1;whiteSpace=wrap;connectable=0;strokeColor=inherit;overflow=hidden;fillColor=none;top=0;left=0;bottom=0;right=0;pointerEvents=1;" parent="bxEy6PSnByUNLnZKAB45-8" vertex="1" visible="0">
          <mxGeometry x="260" width="320" height="40" as="geometry">
            <mxRectangle width="320" height="40" as="alternateBounds" />
          </mxGeometry>
        </mxCell>
        <mxCell id="XiatY8i9MawwiDp1bJaf-6" style="shape=tableRow;horizontal=0;startSize=0;swimlaneHead=0;swimlaneBody=0;strokeColor=inherit;top=0;left=0;bottom=0;right=0;collapsible=0;dropTarget=0;fillColor=none;points=[[0,0.5],[1,0.5]];portConstraint=eastwest;" parent="bxEy6PSnByUNLnZKAB45-2" vertex="1">
          <mxGeometry y="120" width="580" height="40" as="geometry" />
        </mxCell>
        <mxCell id="XiatY8i9MawwiDp1bJaf-7" value="Trigger" style="shape=partialRectangle;html=1;whiteSpace=wrap;connectable=0;strokeColor=inherit;overflow=hidden;fillColor=none;top=0;left=0;bottom=0;right=0;pointerEvents=1;fontStyle=1" parent="XiatY8i9MawwiDp1bJaf-6" vertex="1">
          <mxGeometry width="110" height="40" as="geometry">
            <mxRectangle width="110" height="40" as="alternateBounds" />
          </mxGeometry>
        </mxCell>
        <mxCell id="XiatY8i9MawwiDp1bJaf-8" value="The customer initiates the refund process" style="shape=partialRectangle;html=1;whiteSpace=wrap;connectable=0;strokeColor=inherit;overflow=hidden;fillColor=none;top=0;left=0;bottom=0;right=0;pointerEvents=1;rowspan=1;colspan=3;" parent="XiatY8i9MawwiDp1bJaf-6" vertex="1">
          <mxGeometry x="110" width="470" height="40" as="geometry">
            <mxRectangle width="50" height="40" as="alternateBounds" />
          </mxGeometry>
        </mxCell>
        <mxCell id="XiatY8i9MawwiDp1bJaf-9" style="shape=partialRectangle;html=1;whiteSpace=wrap;connectable=0;strokeColor=inherit;overflow=hidden;fillColor=none;top=0;left=0;bottom=0;right=0;pointerEvents=1;" parent="XiatY8i9MawwiDp1bJaf-6" vertex="1" visible="0">
          <mxGeometry x="160" width="100" height="40" as="geometry">
            <mxRectangle width="100" height="40" as="alternateBounds" />
          </mxGeometry>
        </mxCell>
        <mxCell id="XiatY8i9MawwiDp1bJaf-10" style="shape=partialRectangle;html=1;whiteSpace=wrap;connectable=0;strokeColor=inherit;overflow=hidden;fillColor=none;top=0;left=0;bottom=0;right=0;pointerEvents=1;" parent="XiatY8i9MawwiDp1bJaf-6" vertex="1" visible="0">
          <mxGeometry x="260" width="320" height="40" as="geometry">
            <mxRectangle width="320" height="40" as="alternateBounds" />
          </mxGeometry>
        </mxCell>
        <mxCell id="bxEy6PSnByUNLnZKAB45-13" value="" style="shape=tableRow;horizontal=0;startSize=0;swimlaneHead=0;swimlaneBody=0;strokeColor=inherit;top=0;left=0;bottom=0;right=0;collapsible=0;dropTarget=0;fillColor=none;points=[[0,0.5],[1,0.5]];portConstraint=eastwest;" parent="bxEy6PSnByUNLnZKAB45-2" vertex="1">
          <mxGeometry y="160" width="580" height="70" as="geometry" />
        </mxCell>
        <mxCell id="bxEy6PSnByUNLnZKAB45-14" value="Pre-Condition" style="shape=partialRectangle;html=1;whiteSpace=wrap;connectable=0;strokeColor=inherit;overflow=hidden;fillColor=none;top=0;left=0;bottom=0;right=0;pointerEvents=1;fontStyle=1" parent="bxEy6PSnByUNLnZKAB45-13" vertex="1">
          <mxGeometry width="110" height="70" as="geometry">
            <mxRectangle width="110" height="70" as="alternateBounds" />
          </mxGeometry>
        </mxCell>
        <mxCell id="bxEy6PSnByUNLnZKAB45-15" value="&lt;ul&gt;&lt;li&gt;The customer must be logged in&lt;/li&gt;&lt;li&gt;The &lt;span data-end=&quot;366&quot; data-start=&quot;343&quot;&gt;&quot;Track Order&quot;&lt;/span&gt; use case has been successfully completed&lt;/li&gt;&lt;li&gt;There is at least one order with the status: &lt;strong data-end=&quot;471&quot; data-start=&quot;458&quot;&gt;Delivered&lt;/strong&gt;&lt;/li&gt;&lt;/ul&gt;" style="shape=partialRectangle;html=1;whiteSpace=wrap;connectable=0;strokeColor=inherit;overflow=hidden;fillColor=none;top=0;left=0;bottom=0;right=0;pointerEvents=1;rowspan=1;colspan=3;align=left;" parent="bxEy6PSnByUNLnZKAB45-13" vertex="1">
          <mxGeometry x="110" width="470" height="70" as="geometry">
            <mxRectangle width="50" height="70" as="alternateBounds" />
          </mxGeometry>
        </mxCell>
        <mxCell id="bxEy6PSnByUNLnZKAB45-16" value="" style="shape=partialRectangle;html=1;whiteSpace=wrap;connectable=0;strokeColor=inherit;overflow=hidden;fillColor=none;top=0;left=0;bottom=0;right=0;pointerEvents=1;" parent="bxEy6PSnByUNLnZKAB45-13" vertex="1" visible="0">
          <mxGeometry x="160" width="100" height="70" as="geometry">
            <mxRectangle width="100" height="70" as="alternateBounds" />
          </mxGeometry>
        </mxCell>
        <mxCell id="bxEy6PSnByUNLnZKAB45-17" value="" style="shape=partialRectangle;html=1;whiteSpace=wrap;connectable=0;strokeColor=inherit;overflow=hidden;fillColor=none;top=0;left=0;bottom=0;right=0;pointerEvents=1;" parent="bxEy6PSnByUNLnZKAB45-13" vertex="1" visible="0">
          <mxGeometry x="260" width="320" height="70" as="geometry">
            <mxRectangle width="320" height="70" as="alternateBounds" />
          </mxGeometry>
        </mxCell>
        <mxCell id="XiatY8i9MawwiDp1bJaf-11" style="shape=tableRow;horizontal=0;startSize=0;swimlaneHead=0;swimlaneBody=0;strokeColor=inherit;top=0;left=0;bottom=0;right=0;collapsible=0;dropTarget=0;fillColor=none;points=[[0,0.5],[1,0.5]];portConstraint=eastwest;" parent="bxEy6PSnByUNLnZKAB45-2" vertex="1">
          <mxGeometry y="230" width="580" height="40" as="geometry" />
        </mxCell>
        <mxCell id="XiatY8i9MawwiDp1bJaf-12" value="Post-Condition" style="shape=partialRectangle;html=1;whiteSpace=wrap;connectable=0;strokeColor=inherit;overflow=hidden;fillColor=none;top=0;left=0;bottom=0;right=0;pointerEvents=1;fontStyle=1" parent="XiatY8i9MawwiDp1bJaf-11" vertex="1">
          <mxGeometry width="110" height="40" as="geometry">
            <mxRectangle width="110" height="40" as="alternateBounds" />
          </mxGeometry>
        </mxCell>
        <mxCell id="XiatY8i9MawwiDp1bJaf-13" value="&lt;ul&gt;&lt;li&gt;The refund request is submitted successfully&lt;/li&gt;&lt;/ul&gt;" style="shape=partialRectangle;html=1;whiteSpace=wrap;connectable=0;strokeColor=inherit;overflow=hidden;fillColor=none;top=0;left=0;bottom=0;right=0;pointerEvents=1;rowspan=1;colspan=3;align=left;" parent="XiatY8i9MawwiDp1bJaf-11" vertex="1">
          <mxGeometry x="110" width="470" height="40" as="geometry">
            <mxRectangle width="50" height="40" as="alternateBounds" />
          </mxGeometry>
        </mxCell>
        <mxCell id="XiatY8i9MawwiDp1bJaf-14" style="shape=partialRectangle;html=1;whiteSpace=wrap;connectable=0;strokeColor=inherit;overflow=hidden;fillColor=none;top=0;left=0;bottom=0;right=0;pointerEvents=1;" parent="XiatY8i9MawwiDp1bJaf-11" vertex="1" visible="0">
          <mxGeometry x="160" width="100" height="40" as="geometry">
            <mxRectangle width="100" height="40" as="alternateBounds" />
          </mxGeometry>
        </mxCell>
        <mxCell id="XiatY8i9MawwiDp1bJaf-15" style="shape=partialRectangle;html=1;whiteSpace=wrap;connectable=0;strokeColor=inherit;overflow=hidden;fillColor=none;top=0;left=0;bottom=0;right=0;pointerEvents=1;" parent="XiatY8i9MawwiDp1bJaf-11" vertex="1" visible="0">
          <mxGeometry x="260" width="320" height="40" as="geometry">
            <mxRectangle width="320" height="40" as="alternateBounds" />
          </mxGeometry>
        </mxCell>
        <mxCell id="bxEy6PSnByUNLnZKAB45-18" value="" style="shape=tableRow;horizontal=0;startSize=0;swimlaneHead=0;swimlaneBody=0;strokeColor=inherit;top=0;left=0;bottom=0;right=0;collapsible=0;dropTarget=0;fillColor=none;points=[[0,0.5],[1,0.5]];portConstraint=eastwest;" parent="bxEy6PSnByUNLnZKAB45-2" vertex="1">
          <mxGeometry y="270" width="580" height="40" as="geometry" />
        </mxCell>
        <mxCell id="bxEy6PSnByUNLnZKAB45-19" value="Basic Flow" style="shape=partialRectangle;html=1;whiteSpace=wrap;connectable=0;strokeColor=inherit;overflow=hidden;fillColor=none;top=0;left=0;bottom=0;right=0;pointerEvents=1;fontStyle=1;rowspan=9;colspan=1;" parent="bxEy6PSnByUNLnZKAB45-18" vertex="1">
          <mxGeometry width="110" height="360" as="geometry">
            <mxRectangle width="110" height="40" as="alternateBounds" />
          </mxGeometry>
        </mxCell>
        <mxCell id="bxEy6PSnByUNLnZKAB45-20" value="Step" style="shape=partialRectangle;html=1;whiteSpace=wrap;connectable=0;strokeColor=inherit;overflow=hidden;fillColor=none;top=0;left=0;bottom=0;right=0;pointerEvents=1;" parent="bxEy6PSnByUNLnZKAB45-18" vertex="1">
          <mxGeometry x="110" width="50" height="40" as="geometry">
            <mxRectangle width="50" height="40" as="alternateBounds" />
          </mxGeometry>
        </mxCell>
        <mxCell id="bxEy6PSnByUNLnZKAB45-21" value="Performed by" style="shape=partialRectangle;html=1;whiteSpace=wrap;connectable=0;strokeColor=inherit;overflow=hidden;fillColor=none;top=0;left=0;bottom=0;right=0;pointerEvents=1;" parent="bxEy6PSnByUNLnZKAB45-18" vertex="1">
          <mxGeometry x="160" width="100" height="40" as="geometry">
            <mxRectangle width="100" height="40" as="alternateBounds" />
          </mxGeometry>
        </mxCell>
        <mxCell id="bxEy6PSnByUNLnZKAB45-22" value="Action" style="shape=partialRectangle;html=1;whiteSpace=wrap;connectable=0;strokeColor=inherit;overflow=hidden;fillColor=none;top=0;left=0;bottom=0;right=0;pointerEvents=1;" parent="bxEy6PSnByUNLnZKAB45-18" vertex="1">
          <mxGeometry x="260" width="320" height="40" as="geometry">
            <mxRectangle width="320" height="40" as="alternateBounds" />
          </mxGeometry>
        </mxCell>
        <mxCell id="bxEy6PSnByUNLnZKAB45-23" value="" style="shape=tableRow;horizontal=0;startSize=0;swimlaneHead=0;swimlaneBody=0;strokeColor=inherit;top=0;left=0;bottom=0;right=0;collapsible=0;dropTarget=0;fillColor=none;points=[[0,0.5],[1,0.5]];portConstraint=eastwest;" parent="bxEy6PSnByUNLnZKAB45-2" vertex="1">
          <mxGeometry y="310" width="580" height="40" as="geometry" />
        </mxCell>
        <mxCell id="bxEy6PSnByUNLnZKAB45-24" value="" style="shape=partialRectangle;html=1;whiteSpace=wrap;connectable=0;strokeColor=inherit;overflow=hidden;fillColor=none;top=0;left=0;bottom=0;right=0;pointerEvents=1;fontStyle=1" parent="bxEy6PSnByUNLnZKAB45-23" vertex="1" visible="0">
          <mxGeometry width="110" height="40" as="geometry">
            <mxRectangle width="110" height="40" as="alternateBounds" />
          </mxGeometry>
        </mxCell>
        <mxCell id="bxEy6PSnByUNLnZKAB45-25" value="1" style="shape=partialRectangle;html=1;whiteSpace=wrap;connectable=0;strokeColor=inherit;overflow=hidden;fillColor=none;top=0;left=0;bottom=0;right=0;pointerEvents=1;" parent="bxEy6PSnByUNLnZKAB45-23" vertex="1">
          <mxGeometry x="110" width="50" height="40" as="geometry">
            <mxRectangle width="50" height="40" as="alternateBounds" />
          </mxGeometry>
        </mxCell>
        <mxCell id="bxEy6PSnByUNLnZKAB45-26" value="Customer" style="shape=partialRectangle;html=1;whiteSpace=wrap;connectable=0;strokeColor=inherit;overflow=hidden;fillColor=none;top=0;left=0;bottom=0;right=0;pointerEvents=1;" parent="bxEy6PSnByUNLnZKAB45-23" vertex="1">
          <mxGeometry x="160" width="100" height="40" as="geometry">
            <mxRectangle width="100" height="40" as="alternateBounds" />
          </mxGeometry>
        </mxCell>
        <mxCell id="bxEy6PSnByUNLnZKAB45-27" value="Clicks the &lt;span data-end=&quot;613&quot; data-start=&quot;593&quot;&gt;&quot;&lt;/span&gt;&lt;span data-end=&quot;613&quot; data-start=&quot;593&quot;&gt;Request Refund&quot;&lt;/span&gt; button on a delivered order" style="shape=partialRectangle;html=1;whiteSpace=wrap;connectable=0;strokeColor=inherit;overflow=hidden;fillColor=none;top=0;left=0;bottom=0;right=0;pointerEvents=1;fontStyle=0" parent="bxEy6PSnByUNLnZKAB45-23" vertex="1">
          <mxGeometry x="260" width="320" height="40" as="geometry">
            <mxRectangle width="320" height="40" as="alternateBounds" />
          </mxGeometry>
        </mxCell>
        <mxCell id="bxEy6PSnByUNLnZKAB45-28" value="" style="shape=tableRow;horizontal=0;startSize=0;swimlaneHead=0;swimlaneBody=0;strokeColor=inherit;top=0;left=0;bottom=0;right=0;collapsible=0;dropTarget=0;fillColor=none;points=[[0,0.5],[1,0.5]];portConstraint=eastwest;" parent="bxEy6PSnByUNLnZKAB45-2" vertex="1">
          <mxGeometry y="350" width="580" height="40" as="geometry" />
        </mxCell>
        <mxCell id="bxEy6PSnByUNLnZKAB45-29" value="" style="shape=partialRectangle;html=1;whiteSpace=wrap;connectable=0;strokeColor=inherit;overflow=hidden;fillColor=none;top=0;left=0;bottom=0;right=0;pointerEvents=1;fontStyle=1" parent="bxEy6PSnByUNLnZKAB45-28" vertex="1" visible="0">
          <mxGeometry width="110" height="40" as="geometry">
            <mxRectangle width="110" height="40" as="alternateBounds" />
          </mxGeometry>
        </mxCell>
        <mxCell id="bxEy6PSnByUNLnZKAB45-30" value="2" style="shape=partialRectangle;html=1;whiteSpace=wrap;connectable=0;strokeColor=inherit;overflow=hidden;fillColor=none;top=0;left=0;bottom=0;right=0;pointerEvents=1;" parent="bxEy6PSnByUNLnZKAB45-28" vertex="1">
          <mxGeometry x="110" width="50" height="40" as="geometry">
            <mxRectangle width="50" height="40" as="alternateBounds" />
          </mxGeometry>
        </mxCell>
        <mxCell id="bxEy6PSnByUNLnZKAB45-31" value="System" style="shape=partialRectangle;html=1;whiteSpace=wrap;connectable=0;strokeColor=inherit;overflow=hidden;fillColor=none;top=0;left=0;bottom=0;right=0;pointerEvents=1;" parent="bxEy6PSnByUNLnZKAB45-28" vertex="1">
          <mxGeometry x="160" width="100" height="40" as="geometry">
            <mxRectangle width="100" height="40" as="alternateBounds" />
          </mxGeometry>
        </mxCell>
        <mxCell id="bxEy6PSnByUNLnZKAB45-32" value="Opens a popup window for refund details" style="shape=partialRectangle;html=1;whiteSpace=wrap;connectable=0;strokeColor=inherit;overflow=hidden;fillColor=none;top=0;left=0;bottom=0;right=0;pointerEvents=1;fontStyle=0" parent="bxEy6PSnByUNLnZKAB45-28" vertex="1">
          <mxGeometry x="260" width="320" height="40" as="geometry">
            <mxRectangle width="320" height="40" as="alternateBounds" />
          </mxGeometry>
        </mxCell>
        <mxCell id="bxEy6PSnByUNLnZKAB45-33" value="" style="shape=tableRow;horizontal=0;startSize=0;swimlaneHead=0;swimlaneBody=0;strokeColor=inherit;top=0;left=0;bottom=0;right=0;collapsible=0;dropTarget=0;fillColor=none;points=[[0,0.5],[1,0.5]];portConstraint=eastwest;" parent="bxEy6PSnByUNLnZKAB45-2" vertex="1">
          <mxGeometry y="390" width="580" height="40" as="geometry" />
        </mxCell>
        <mxCell id="bxEy6PSnByUNLnZKAB45-34" value="" style="shape=partialRectangle;html=1;whiteSpace=wrap;connectable=0;strokeColor=inherit;overflow=hidden;fillColor=none;top=0;left=0;bottom=0;right=0;pointerEvents=1;fontStyle=1" parent="bxEy6PSnByUNLnZKAB45-33" vertex="1" visible="0">
          <mxGeometry width="110" height="40" as="geometry">
            <mxRectangle width="110" height="40" as="alternateBounds" />
          </mxGeometry>
        </mxCell>
        <mxCell id="bxEy6PSnByUNLnZKAB45-35" value="3" style="shape=partialRectangle;html=1;whiteSpace=wrap;connectable=0;strokeColor=inherit;overflow=hidden;fillColor=none;top=0;left=0;bottom=0;right=0;pointerEvents=1;" parent="bxEy6PSnByUNLnZKAB45-33" vertex="1">
          <mxGeometry x="110" width="50" height="40" as="geometry">
            <mxRectangle width="50" height="40" as="alternateBounds" />
          </mxGeometry>
        </mxCell>
        <mxCell id="bxEy6PSnByUNLnZKAB45-36" value="Customer" style="shape=partialRectangle;html=1;whiteSpace=wrap;connectable=0;strokeColor=inherit;overflow=hidden;fillColor=none;top=0;left=0;bottom=0;right=0;pointerEvents=1;" parent="bxEy6PSnByUNLnZKAB45-33" vertex="1">
          <mxGeometry x="160" width="100" height="40" as="geometry">
            <mxRectangle width="100" height="40" as="alternateBounds" />
          </mxGeometry>
        </mxCell>
        <mxCell id="bxEy6PSnByUNLnZKAB45-37" value="Enters the reason for the refund" style="shape=partialRectangle;html=1;whiteSpace=wrap;connectable=0;strokeColor=inherit;overflow=hidden;fillColor=none;top=0;left=0;bottom=0;right=0;pointerEvents=1;" parent="bxEy6PSnByUNLnZKAB45-33" vertex="1">
          <mxGeometry x="260" width="320" height="40" as="geometry">
            <mxRectangle width="320" height="40" as="alternateBounds" />
          </mxGeometry>
        </mxCell>
        <mxCell id="bxEy6PSnByUNLnZKAB45-38" value="" style="shape=tableRow;horizontal=0;startSize=0;swimlaneHead=0;swimlaneBody=0;strokeColor=inherit;top=0;left=0;bottom=0;right=0;collapsible=0;dropTarget=0;fillColor=none;points=[[0,0.5],[1,0.5]];portConstraint=eastwest;" parent="bxEy6PSnByUNLnZKAB45-2" vertex="1">
          <mxGeometry y="430" width="580" height="40" as="geometry" />
        </mxCell>
        <mxCell id="bxEy6PSnByUNLnZKAB45-39" value="" style="shape=partialRectangle;html=1;whiteSpace=wrap;connectable=0;strokeColor=inherit;overflow=hidden;fillColor=none;top=0;left=0;bottom=0;right=0;pointerEvents=1;fontStyle=1" parent="bxEy6PSnByUNLnZKAB45-38" vertex="1" visible="0">
          <mxGeometry width="110" height="40" as="geometry">
            <mxRectangle width="110" height="40" as="alternateBounds" />
          </mxGeometry>
        </mxCell>
        <mxCell id="bxEy6PSnByUNLnZKAB45-40" value="4" style="shape=partialRectangle;html=1;whiteSpace=wrap;connectable=0;strokeColor=inherit;overflow=hidden;fillColor=none;top=0;left=0;bottom=0;right=0;pointerEvents=1;" parent="bxEy6PSnByUNLnZKAB45-38" vertex="1">
          <mxGeometry x="110" width="50" height="40" as="geometry">
            <mxRectangle width="50" height="40" as="alternateBounds" />
          </mxGeometry>
        </mxCell>
        <mxCell id="bxEy6PSnByUNLnZKAB45-41" value="Customer" style="shape=partialRectangle;html=1;whiteSpace=wrap;connectable=0;strokeColor=inherit;overflow=hidden;fillColor=none;top=0;left=0;bottom=0;right=0;pointerEvents=1;" parent="bxEy6PSnByUNLnZKAB45-38" vertex="1">
          <mxGeometry x="160" width="100" height="40" as="geometry">
            <mxRectangle width="100" height="40" as="alternateBounds" />
          </mxGeometry>
        </mxCell>
        <mxCell id="bxEy6PSnByUNLnZKAB45-42" value="Clicks &lt;span data-end=&quot;947&quot; data-start=&quot;920&quot;&gt;&quot;Submit&quot;&lt;/span&gt;" style="shape=partialRectangle;html=1;whiteSpace=wrap;connectable=0;strokeColor=inherit;overflow=hidden;fillColor=none;top=0;left=0;bottom=0;right=0;pointerEvents=1;" parent="bxEy6PSnByUNLnZKAB45-38" vertex="1">
          <mxGeometry x="260" width="320" height="40" as="geometry">
            <mxRectangle width="320" height="40" as="alternateBounds" />
          </mxGeometry>
        </mxCell>
        <mxCell id="pZrRxIjnC__93EqscDvt-16" style="shape=tableRow;horizontal=0;startSize=0;swimlaneHead=0;swimlaneBody=0;strokeColor=inherit;top=0;left=0;bottom=0;right=0;collapsible=0;dropTarget=0;fillColor=none;points=[[0,0.5],[1,0.5]];portConstraint=eastwest;" parent="bxEy6PSnByUNLnZKAB45-2" vertex="1">
          <mxGeometry y="470" width="580" height="40" as="geometry" />
        </mxCell>
        <mxCell id="pZrRxIjnC__93EqscDvt-17" style="shape=partialRectangle;html=1;whiteSpace=wrap;connectable=0;strokeColor=inherit;overflow=hidden;fillColor=none;top=0;left=0;bottom=0;right=0;pointerEvents=1;fontStyle=1" parent="pZrRxIjnC__93EqscDvt-16" vertex="1" visible="0">
          <mxGeometry width="110" height="40" as="geometry">
            <mxRectangle width="110" height="40" as="alternateBounds" />
          </mxGeometry>
        </mxCell>
        <mxCell id="pZrRxIjnC__93EqscDvt-18" value="5" style="shape=partialRectangle;html=1;whiteSpace=wrap;connectable=0;strokeColor=inherit;overflow=hidden;fillColor=none;top=0;left=0;bottom=0;right=0;pointerEvents=1;" parent="pZrRxIjnC__93EqscDvt-16" vertex="1">
          <mxGeometry x="110" width="50" height="40" as="geometry">
            <mxRectangle width="50" height="40" as="alternateBounds" />
          </mxGeometry>
        </mxCell>
        <mxCell id="pZrRxIjnC__93EqscDvt-19" value="&lt;div&gt;System&lt;/div&gt;" style="shape=partialRectangle;html=1;whiteSpace=wrap;connectable=0;strokeColor=inherit;overflow=hidden;fillColor=none;top=0;left=0;bottom=0;right=0;pointerEvents=1;" parent="pZrRxIjnC__93EqscDvt-16" vertex="1">
          <mxGeometry x="160" width="100" height="40" as="geometry">
            <mxRectangle width="100" height="40" as="alternateBounds" />
          </mxGeometry>
        </mxCell>
        <mxCell id="pZrRxIjnC__93EqscDvt-20" value="Displays a confirmation message" style="shape=partialRectangle;html=1;whiteSpace=wrap;connectable=0;strokeColor=inherit;overflow=hidden;fillColor=none;top=0;left=0;bottom=0;right=0;pointerEvents=1;" parent="pZrRxIjnC__93EqscDvt-16" vertex="1">
          <mxGeometry x="260" width="320" height="40" as="geometry">
            <mxRectangle width="320" height="40" as="alternateBounds" />
          </mxGeometry>
        </mxCell>
        <mxCell id="pZrRxIjnC__93EqscDvt-11" style="shape=tableRow;horizontal=0;startSize=0;swimlaneHead=0;swimlaneBody=0;strokeColor=inherit;top=0;left=0;bottom=0;right=0;collapsible=0;dropTarget=0;fillColor=none;points=[[0,0.5],[1,0.5]];portConstraint=eastwest;" parent="bxEy6PSnByUNLnZKAB45-2" vertex="1">
          <mxGeometry y="510" width="580" height="40" as="geometry" />
        </mxCell>
        <mxCell id="pZrRxIjnC__93EqscDvt-12" style="shape=partialRectangle;html=1;whiteSpace=wrap;connectable=0;strokeColor=inherit;overflow=hidden;fillColor=none;top=0;left=0;bottom=0;right=0;pointerEvents=1;fontStyle=1" parent="pZrRxIjnC__93EqscDvt-11" vertex="1" visible="0">
          <mxGeometry width="110" height="40" as="geometry">
            <mxRectangle width="110" height="40" as="alternateBounds" />
          </mxGeometry>
        </mxCell>
        <mxCell id="pZrRxIjnC__93EqscDvt-13" value="6" style="shape=partialRectangle;html=1;whiteSpace=wrap;connectable=0;strokeColor=inherit;overflow=hidden;fillColor=none;top=0;left=0;bottom=0;right=0;pointerEvents=1;" parent="pZrRxIjnC__93EqscDvt-11" vertex="1">
          <mxGeometry x="110" width="50" height="40" as="geometry">
            <mxRectangle width="50" height="40" as="alternateBounds" />
          </mxGeometry>
        </mxCell>
        <mxCell id="pZrRxIjnC__93EqscDvt-14" value="Customer" style="shape=partialRectangle;html=1;whiteSpace=wrap;connectable=0;strokeColor=inherit;overflow=hidden;fillColor=none;top=0;left=0;bottom=0;right=0;pointerEvents=1;" parent="pZrRxIjnC__93EqscDvt-11" vertex="1">
          <mxGeometry x="160" width="100" height="40" as="geometry">
            <mxRectangle width="100" height="40" as="alternateBounds" />
          </mxGeometry>
        </mxCell>
        <mxCell id="pZrRxIjnC__93EqscDvt-15" value="Selects &lt;span data-end=&quot;769&quot; data-start=&quot;760&quot;&gt;&quot;Yes&quot;&lt;/span&gt;" style="shape=partialRectangle;html=1;whiteSpace=wrap;connectable=0;strokeColor=inherit;overflow=hidden;fillColor=none;top=0;left=0;bottom=0;right=0;pointerEvents=1;" parent="pZrRxIjnC__93EqscDvt-11" vertex="1">
          <mxGeometry x="260" width="320" height="40" as="geometry">
            <mxRectangle width="320" height="40" as="alternateBounds" />
          </mxGeometry>
        </mxCell>
        <mxCell id="pZrRxIjnC__93EqscDvt-6" style="shape=tableRow;horizontal=0;startSize=0;swimlaneHead=0;swimlaneBody=0;strokeColor=inherit;top=0;left=0;bottom=0;right=0;collapsible=0;dropTarget=0;fillColor=none;points=[[0,0.5],[1,0.5]];portConstraint=eastwest;" parent="bxEy6PSnByUNLnZKAB45-2" vertex="1">
          <mxGeometry y="550" width="580" height="40" as="geometry" />
        </mxCell>
        <mxCell id="pZrRxIjnC__93EqscDvt-7" style="shape=partialRectangle;html=1;whiteSpace=wrap;connectable=0;strokeColor=inherit;overflow=hidden;fillColor=none;top=0;left=0;bottom=0;right=0;pointerEvents=1;fontStyle=1" parent="pZrRxIjnC__93EqscDvt-6" vertex="1" visible="0">
          <mxGeometry width="110" height="40" as="geometry">
            <mxRectangle width="110" height="40" as="alternateBounds" />
          </mxGeometry>
        </mxCell>
        <mxCell id="pZrRxIjnC__93EqscDvt-8" value="7" style="shape=partialRectangle;html=1;whiteSpace=wrap;connectable=0;strokeColor=inherit;overflow=hidden;fillColor=none;top=0;left=0;bottom=0;right=0;pointerEvents=1;" parent="pZrRxIjnC__93EqscDvt-6" vertex="1">
          <mxGeometry x="110" width="50" height="40" as="geometry">
            <mxRectangle width="50" height="40" as="alternateBounds" />
          </mxGeometry>
        </mxCell>
        <mxCell id="pZrRxIjnC__93EqscDvt-9" value="System" style="shape=partialRectangle;html=1;whiteSpace=wrap;connectable=0;strokeColor=inherit;overflow=hidden;fillColor=none;top=0;left=0;bottom=0;right=0;pointerEvents=1;" parent="pZrRxIjnC__93EqscDvt-6" vertex="1">
          <mxGeometry x="160" width="100" height="40" as="geometry">
            <mxRectangle width="100" height="40" as="alternateBounds" />
          </mxGeometry>
        </mxCell>
        <mxCell id="pZrRxIjnC__93EqscDvt-10" value="Displays a success message" style="shape=partialRectangle;html=1;whiteSpace=wrap;connectable=0;strokeColor=inherit;overflow=hidden;fillColor=none;top=0;left=0;bottom=0;right=0;pointerEvents=1;" parent="pZrRxIjnC__93EqscDvt-6" vertex="1">
          <mxGeometry x="260" width="320" height="40" as="geometry">
            <mxRectangle width="320" height="40" as="alternateBounds" />
          </mxGeometry>
        </mxCell>
        <mxCell id="pZrRxIjnC__93EqscDvt-1" style="shape=tableRow;horizontal=0;startSize=0;swimlaneHead=0;swimlaneBody=0;strokeColor=inherit;top=0;left=0;bottom=0;right=0;collapsible=0;dropTarget=0;fillColor=none;points=[[0,0.5],[1,0.5]];portConstraint=eastwest;" parent="bxEy6PSnByUNLnZKAB45-2" vertex="1">
          <mxGeometry y="590" width="580" height="40" as="geometry" />
        </mxCell>
        <mxCell id="pZrRxIjnC__93EqscDvt-2" style="shape=partialRectangle;html=1;whiteSpace=wrap;connectable=0;strokeColor=inherit;overflow=hidden;fillColor=none;top=0;left=0;bottom=0;right=0;pointerEvents=1;fontStyle=1" parent="pZrRxIjnC__93EqscDvt-1" vertex="1" visible="0">
          <mxGeometry width="110" height="40" as="geometry">
            <mxRectangle width="110" height="40" as="alternateBounds" />
          </mxGeometry>
        </mxCell>
        <mxCell id="pZrRxIjnC__93EqscDvt-3" value="8" style="shape=partialRectangle;html=1;whiteSpace=wrap;connectable=0;strokeColor=inherit;overflow=hidden;fillColor=none;top=0;left=0;bottom=0;right=0;pointerEvents=1;" parent="pZrRxIjnC__93EqscDvt-1" vertex="1">
          <mxGeometry x="110" width="50" height="40" as="geometry">
            <mxRectangle width="50" height="40" as="alternateBounds" />
          </mxGeometry>
        </mxCell>
        <mxCell id="pZrRxIjnC__93EqscDvt-4" value="System" style="shape=partialRectangle;html=1;whiteSpace=wrap;connectable=0;strokeColor=inherit;overflow=hidden;fillColor=none;top=0;left=0;bottom=0;right=0;pointerEvents=1;" parent="pZrRxIjnC__93EqscDvt-1" vertex="1">
          <mxGeometry x="160" width="100" height="40" as="geometry">
            <mxRectangle width="100" height="40" as="alternateBounds" />
          </mxGeometry>
        </mxCell>
        <mxCell id="pZrRxIjnC__93EqscDvt-5" value="Refreshes the &quot;My Order&quot; page" style="shape=partialRectangle;html=1;whiteSpace=wrap;connectable=0;strokeColor=inherit;overflow=hidden;fillColor=none;top=0;left=0;bottom=0;right=0;pointerEvents=1;" parent="pZrRxIjnC__93EqscDvt-1" vertex="1">
          <mxGeometry x="260" width="320" height="40" as="geometry">
            <mxRectangle width="320" height="40" as="alternateBounds" />
          </mxGeometry>
        </mxCell>
        <mxCell id="pZrRxIjnC__93EqscDvt-21" style="shape=tableRow;horizontal=0;startSize=0;swimlaneHead=0;swimlaneBody=0;strokeColor=inherit;top=0;left=0;bottom=0;right=0;collapsible=0;dropTarget=0;fillColor=none;points=[[0,0.5],[1,0.5]];portConstraint=eastwest;" parent="bxEy6PSnByUNLnZKAB45-2" vertex="1">
          <mxGeometry y="630" width="580" height="50" as="geometry" />
        </mxCell>
        <mxCell id="pZrRxIjnC__93EqscDvt-22" value="Exception Flow" style="shape=partialRectangle;html=1;whiteSpace=wrap;connectable=0;strokeColor=inherit;overflow=hidden;fillColor=none;top=0;left=0;bottom=0;right=0;pointerEvents=1;fontStyle=1;rowspan=3;colspan=1;" parent="pZrRxIjnC__93EqscDvt-21" vertex="1">
          <mxGeometry width="110" height="140" as="geometry">
            <mxRectangle width="110" height="50" as="alternateBounds" />
          </mxGeometry>
        </mxCell>
        <mxCell id="pZrRxIjnC__93EqscDvt-23" value="6a" style="shape=partialRectangle;html=1;whiteSpace=wrap;connectable=0;strokeColor=inherit;overflow=hidden;fillColor=none;top=0;left=0;bottom=0;right=0;pointerEvents=1;" parent="pZrRxIjnC__93EqscDvt-21" vertex="1">
          <mxGeometry x="110" width="50" height="50" as="geometry">
            <mxRectangle width="50" height="50" as="alternateBounds" />
          </mxGeometry>
        </mxCell>
        <mxCell id="pZrRxIjnC__93EqscDvt-24" value="Customer" style="shape=partialRectangle;html=1;whiteSpace=wrap;connectable=0;strokeColor=inherit;overflow=hidden;fillColor=none;top=0;left=0;bottom=0;right=0;pointerEvents=1;" parent="pZrRxIjnC__93EqscDvt-21" vertex="1">
          <mxGeometry x="160" width="100" height="50" as="geometry">
            <mxRectangle width="100" height="50" as="alternateBounds" />
          </mxGeometry>
        </mxCell>
        <mxCell id="pZrRxIjnC__93EqscDvt-25" value="&lt;div&gt;Selects &lt;span data-end=&quot;1114&quot; data-start=&quot;1106&quot;&gt;&quot;No&quot;&lt;/span&gt;&lt;/div&gt;&lt;div&gt;&lt;i&gt;The Use Case ends here&lt;/i&gt;&lt;/div&gt;" style="shape=partialRectangle;html=1;whiteSpace=wrap;connectable=0;strokeColor=inherit;overflow=hidden;fillColor=none;top=0;left=0;bottom=0;right=0;pointerEvents=1;" parent="pZrRxIjnC__93EqscDvt-21" vertex="1">
          <mxGeometry x="260" width="320" height="50" as="geometry">
            <mxRectangle width="320" height="50" as="alternateBounds" />
          </mxGeometry>
        </mxCell>
        <mxCell id="pZrRxIjnC__93EqscDvt-26" style="shape=tableRow;horizontal=0;startSize=0;swimlaneHead=0;swimlaneBody=0;strokeColor=inherit;top=0;left=0;bottom=0;right=0;collapsible=0;dropTarget=0;fillColor=none;points=[[0,0.5],[1,0.5]];portConstraint=eastwest;" parent="bxEy6PSnByUNLnZKAB45-2" vertex="1">
          <mxGeometry y="680" width="580" height="50" as="geometry" />
        </mxCell>
        <mxCell id="pZrRxIjnC__93EqscDvt-27" style="shape=partialRectangle;html=1;whiteSpace=wrap;connectable=0;strokeColor=inherit;overflow=hidden;fillColor=none;top=0;left=0;bottom=0;right=0;pointerEvents=1;fontStyle=1" parent="pZrRxIjnC__93EqscDvt-26" vertex="1" visible="0">
          <mxGeometry width="110" height="50" as="geometry">
            <mxRectangle width="110" height="50" as="alternateBounds" />
          </mxGeometry>
        </mxCell>
        <mxCell id="pZrRxIjnC__93EqscDvt-28" value="3a" style="shape=partialRectangle;html=1;whiteSpace=wrap;connectable=0;strokeColor=inherit;overflow=hidden;fillColor=none;top=0;left=0;bottom=0;right=0;pointerEvents=1;" parent="pZrRxIjnC__93EqscDvt-26" vertex="1">
          <mxGeometry x="110" width="50" height="50" as="geometry">
            <mxRectangle width="50" height="50" as="alternateBounds" />
          </mxGeometry>
        </mxCell>
        <mxCell id="pZrRxIjnC__93EqscDvt-29" value="Customer" style="shape=partialRectangle;html=1;whiteSpace=wrap;connectable=0;strokeColor=inherit;overflow=hidden;fillColor=none;top=0;left=0;bottom=0;right=0;pointerEvents=1;" parent="pZrRxIjnC__93EqscDvt-26" vertex="1">
          <mxGeometry x="160" width="100" height="50" as="geometry">
            <mxRectangle width="100" height="50" as="alternateBounds" />
          </mxGeometry>
        </mxCell>
        <mxCell id="pZrRxIjnC__93EqscDvt-30" value="&lt;div&gt;Closes the refund popup window without submitting&lt;/div&gt;&lt;i&gt;The Use Case ends here&lt;/i&gt;" style="shape=partialRectangle;html=1;whiteSpace=wrap;connectable=0;strokeColor=inherit;overflow=hidden;fillColor=none;top=0;left=0;bottom=0;right=0;pointerEvents=1;" parent="pZrRxIjnC__93EqscDvt-26" vertex="1">
          <mxGeometry x="260" width="320" height="50" as="geometry">
            <mxRectangle width="320" height="50" as="alternateBounds" />
          </mxGeometry>
        </mxCell>
        <mxCell id="bxEy6PSnByUNLnZKAB45-53" style="shape=tableRow;horizontal=0;startSize=0;swimlaneHead=0;swimlaneBody=0;strokeColor=inherit;top=0;left=0;bottom=0;right=0;collapsible=0;dropTarget=0;fillColor=none;points=[[0,0.5],[1,0.5]];portConstraint=eastwest;" parent="bxEy6PSnByUNLnZKAB45-2" vertex="1">
          <mxGeometry y="730" width="580" height="40" as="geometry" />
        </mxCell>
        <mxCell id="bxEy6PSnByUNLnZKAB45-54" value="" style="shape=partialRectangle;html=1;whiteSpace=wrap;connectable=0;strokeColor=inherit;overflow=hidden;fillColor=none;top=0;left=0;bottom=0;right=0;pointerEvents=1;fontStyle=1" parent="bxEy6PSnByUNLnZKAB45-53" vertex="1" visible="0">
          <mxGeometry width="110" height="40" as="geometry">
            <mxRectangle width="110" height="40" as="alternateBounds" />
          </mxGeometry>
        </mxCell>
        <mxCell id="bxEy6PSnByUNLnZKAB45-55" value="7a" style="shape=partialRectangle;html=1;whiteSpace=wrap;connectable=0;strokeColor=inherit;overflow=hidden;fillColor=none;top=0;left=0;bottom=0;right=0;pointerEvents=1;" parent="bxEy6PSnByUNLnZKAB45-53" vertex="1">
          <mxGeometry x="110" width="50" height="40" as="geometry">
            <mxRectangle width="50" height="40" as="alternateBounds" />
          </mxGeometry>
        </mxCell>
        <mxCell id="bxEy6PSnByUNLnZKAB45-56" value="System" style="shape=partialRectangle;html=1;whiteSpace=wrap;connectable=0;strokeColor=inherit;overflow=hidden;fillColor=none;top=0;left=0;bottom=0;right=0;pointerEvents=1;" parent="bxEy6PSnByUNLnZKAB45-53" vertex="1">
          <mxGeometry x="160" width="100" height="40" as="geometry">
            <mxRectangle width="100" height="40" as="alternateBounds" />
          </mxGeometry>
        </mxCell>
        <mxCell id="bxEy6PSnByUNLnZKAB45-57" value="If the refund request fails to send: displays window informing the customer that the request submission failed." style="shape=partialRectangle;html=1;whiteSpace=wrap;connectable=0;strokeColor=inherit;overflow=hidden;fillColor=none;top=0;left=0;bottom=0;right=0;pointerEvents=1;" parent="bxEy6PSnByUNLnZKAB45-53" vertex="1">
          <mxGeometry x="260" width="320" height="40" as="geometry">
            <mxRectangle width="320" height="40" as="alternateBounds" />
          </mxGeometry>
        </mxCell>
      </root>
    </mxGraphModel>
  </diagram>
</mxfile>
